<svg width="66" height="30" viewBox="0 0 287 128" fill="none" xmlns="http://www.w3.org/2000/svg">
<path d="M40.4052 52.6564C41.5563 52.8608 42.5391 53.3814 43.3538 54.2183C44.2002 54.9869 44.8329 55.9467 45.2518 57.0977C45.6161 58.0985 45.7802 59.1722 45.7441 60.3187C45.7081 61.4652 45.4832 62.4821 45.0694 63.3694C44.3006 63.5926 43.1656 63.9773 41.6644 64.5237C40.7136 64.8698 39.0054 65.5482 36.5398 66.5589L32.5889 68.082C32.3109 66.5397 32.9398 70.136 34.4756 78.8709L36.0889 87.9742C36.663 91.1087 37.5491 95.1781 38.7472 100.182C39.7403 104.468 40.3372 107.509 40.5379 109.306C40.7886 111.085 40.5137 112.12 39.713 112.412C38.5621 112.83 37.0403 112.931 35.1476 112.713C33.2867 112.427 31.5463 111.927 29.9264 111.213C28.3566 110.481 27.435 109.74 27.1618 108.989C26.6929 107.857 26.0549 104.235 25.2478 98.1254C24.4683 93.0255 23.8598 89.2517 23.4223 86.8041C23.4588 86.9042 23.1032 84.6818 22.3557 80.137C21.6721 76.0789 21.2505 73.5972 21.091 72.6919L9.90059 78.3799C8.76769 78.2256 7.72796 77.7823 6.78142 77.0501C5.86671 76.2496 5.1999 75.2739 4.78099 74.123C4.05246 72.1213 4.18152 70.0626 5.16817 67.9467C7.87478 66.5082 11.3366 64.9649 15.5536 63.3167C19.8025 61.6002 22.3181 60.5713 23.1006 60.2298C28.3002 58.1673 32.0828 56.6489 34.4483 55.6745C36.8456 54.632 38.8313 53.6259 40.4052 52.6564Z" fill="white"/>
<path d="M87.2322 82.6203C89.7383 80.008 91.7326 77.4688 93.215 75.0024C95.69 74.9517 97.6988 75.4106 99.2414 76.3792C100.816 77.2795 101.913 78.5804 102.532 80.2818C102.969 81.4828 102.574 83.0434 101.346 84.9637C100.1 86.834 98.4557 88.6225 96.4134 90.3292C94.3711 92.0359 92.5243 93.1898 90.8729 93.7908C89.722 94.2097 88.2411 94.2671 86.4303 93.9628C84.6695 93.6403 83.0292 93.1039 81.5094 92.3536C80.0396 91.5852 79.1863 90.8757 78.9496 90.2252C78.7674 89.7248 78.7217 88.9764 78.8124 87.98C78.9532 86.9653 79.1098 85.9166 79.2824 84.8338C79.4549 83.7509 79.5616 83.032 79.6025 82.6771L77.3435 82.3093C76.2759 87.6281 74.9987 92.0598 73.5121 95.6044C72.0754 99.1308 70.1811 101.322 67.8292 102.178C66.2279 102.761 64.2716 102.68 61.9601 101.934C59.6987 101.17 57.5782 100.015 55.5987 98.4692C53.6692 96.9047 52.4221 95.3468 51.8575 93.7955C50.2365 89.3419 49.5049 84.4513 49.6625 79.1236C49.8202 73.7959 50.9949 69.0048 53.1866 64.7502C55.4283 60.4775 58.6508 57.5761 62.8542 56.0462C64.3555 55.4998 66.1276 55.6199 68.1706 56.4063C70.2136 57.1928 71.7153 58.2047 72.6756 59.4419C72.5251 58.2499 72.5294 57.1717 72.6883 56.2071C72.8791 55.1743 73.2497 54.5577 73.8002 54.3573C75.1012 53.8838 76.7004 53.8401 78.5977 54.2263C80.5269 54.5442 82.2695 55.1283 83.8258 55.9786C85.3638 56.7789 86.2603 57.5293 86.5153 58.2299C86.8113 59.1989 86.9847 60.9209 87.0355 63.3958C87.1363 65.8526 87.2056 69.6242 87.2435 74.7107C87.1852 77.5088 87.1814 80.1453 87.2322 82.6203ZM64.4071 91.608C67.5497 87.6307 69.9574 83.2691 71.6303 78.5234C73.2849 73.7276 73.8522 68.9025 73.3321 64.0482C71.7625 63.9395 70.3772 64.1037 69.1762 64.5408C66.8243 65.3968 65.105 67.2126 64.0185 69.9882C62.932 72.7638 62.4575 76.0534 62.5951 79.8568C62.7327 83.6603 63.3367 87.5773 64.4071 91.608Z" fill="white"/>
<path d="M115.444 55.691C117.331 49.5075 118.913 44.8231 120.19 41.638C121.449 38.4029 122.905 36.4848 124.556 35.8837C125.707 35.4648 127.083 35.5872 128.685 36.251C130.337 36.8966 131.845 37.8493 133.21 39.1091C134.557 40.3189 135.422 41.4493 135.805 42.5001C136.843 45.3524 136.755 48.6146 135.541 52.2865C134.36 55.8901 132.477 59.4371 129.894 62.9275C131.241 63.514 132.356 63.9299 133.238 64.1754C134.121 64.4208 135.017 64.5479 135.927 64.5567C137.296 63.4917 138.92 61.8807 140.798 59.7236C142.628 60.0779 144.161 60.7099 145.399 61.6194C146.636 62.529 147.474 63.5843 147.911 64.7852C148.676 66.8869 148.363 68.9844 146.971 71.0776C145.561 73.1208 143.43 74.6615 140.578 75.6997C138.226 76.5557 135.803 76.6724 133.31 76.0499C130.848 75.3591 128.548 74.0995 126.409 72.2712C124.302 70.3746 122.532 68.1572 121.098 65.6189L121.677 62.7729C124.029 60.6703 125.641 58.6384 126.514 56.6773C127.437 54.6979 127.689 53.1327 127.27 51.9818C127.088 51.4814 126.801 51.1607 126.41 51.0198C126.05 50.8106 125.646 50.788 125.195 50.9519C124.094 51.3526 123.016 52.595 121.961 54.679C120.888 56.713 119.49 59.8004 117.767 63.9411C117.735 64.0093 117.397 64.8693 116.751 66.521C118.022 70.4788 118.958 74.2183 119.559 77.7396C120.161 81.2608 119.936 83.2127 118.885 83.5952C117.634 84.0505 116.028 84.1533 114.067 83.9037C112.106 83.654 110.316 83.1723 108.696 82.4585C107.108 81.6764 106.159 80.86 105.85 80.0093C105.631 79.4089 105.458 78.3102 105.33 76.7133C105.184 75.0664 105.058 73.242 104.953 71.2402C104.573 64.1247 104.014 57.8395 103.275 52.3847C102.856 49.3639 102.325 46.2703 101.683 43.1039C100.926 38.8457 100.406 35.5496 100.124 33.2157C99.8409 30.8819 99.8108 28.8527 100.033 27.1283C100.287 25.3357 100.99 24.2299 102.141 23.811C102.992 23.5014 104.434 23.5715 106.468 24.0213C108.533 24.4029 110.463 25.0324 112.255 25.91C114.03 26.7375 115.072 27.5766 115.382 28.4273C115.655 29.1779 115.689 30.1288 115.485 31.2799C115.312 32.3627 114.935 33.9734 114.354 36.1119C114.231 36.5533 114.01 37.4269 113.692 38.7327C113.424 40.0203 113.268 41.0691 113.222 41.8789C113.15 43.5487 113.148 45.6461 113.217 48.1711C113.336 50.6779 113.537 53.0982 113.82 55.4321L115.444 55.691Z" fill="white"/>
<path d="M170.569 64.7837C168.168 65.6579 165.383 65.7929 162.216 65.1888C159.032 64.5346 156.169 63.3662 153.63 61.6835C151.091 60.0009 149.448 58.1338 148.701 56.0821C147.372 52.4291 146.765 48.1163 146.882 43.1435C147.049 38.1525 148.112 33.6002 150.072 29.4868C152.014 25.3233 154.911 22.5403 158.764 21.1379C161.516 20.1362 164.212 19.8351 166.851 20.2347C169.54 20.6161 171.837 21.4798 173.744 22.826C175.651 24.1721 176.914 25.6959 177.533 27.3972C178.298 29.4989 178.103 31.9217 176.948 34.6655C175.775 37.3592 173.77 40.1009 170.932 42.8907C168.075 45.6304 164.589 48.1178 160.472 50.3529C160.64 50.9716 160.943 51.8815 161.38 53.0824C161.927 54.5836 162.387 55.6913 162.76 56.4055C165.171 55.2447 167.402 53.6676 169.453 51.6742C171.505 49.6809 173.617 47.1552 175.791 44.0972C177.961 43.9874 179.783 44.4008 181.258 45.3376C182.732 46.2744 183.797 47.6436 184.453 49.445C184.999 50.9462 184.611 52.7594 183.287 54.8844C181.996 56.9413 180.154 58.8868 177.761 60.721C175.369 62.5552 172.971 63.9094 170.569 64.7837ZM159.549 44.3135C162.201 42.1016 164.243 39.7716 165.675 37.3235C167.108 34.8754 167.605 33.0508 167.168 31.8498C166.658 30.4487 165.336 29.8531 163.203 30.063C161.811 32.1562 160.795 34.4245 160.154 36.8679C159.563 39.293 159.362 41.7749 159.549 44.3135Z" fill="white"/>
<path d="M121.804 88.5014C122.007 88.6187 122.156 88.7841 122.252 88.9974C122.359 89.2001 122.412 89.4241 122.412 89.6694C122.412 89.8827 122.369 90.0961 122.284 90.3094C122.199 90.5227 122.087 90.6987 121.948 90.8374C121.788 90.8267 121.548 90.8214 121.228 90.8214C121.025 90.8214 120.657 90.8321 120.124 90.8534L119.276 90.8694C119.329 90.5601 119.201 91.2801 118.892 93.0294L118.572 94.8534C118.465 95.4827 118.353 96.3094 118.236 97.3334C118.129 98.2081 118.033 98.8214 117.948 99.1734C117.873 99.5254 117.751 99.7014 117.58 99.7014C117.335 99.7014 117.041 99.6161 116.7 99.4454C116.369 99.2641 116.076 99.0507 115.82 98.8054C115.575 98.5601 115.452 98.3574 115.452 98.1974C115.441 97.9521 115.569 97.2267 115.836 96.0214C116.039 95.0081 116.183 94.2561 116.268 93.7654C116.268 93.7867 116.353 93.3441 116.524 92.4374C116.673 91.6267 116.764 91.1307 116.796 90.9494L114.3 91.2534C114.097 91.1467 113.932 90.9921 113.804 90.7894C113.687 90.5761 113.628 90.3467 113.628 90.1014C113.628 89.6747 113.793 89.2961 114.124 88.9654C114.732 88.8801 115.489 88.8267 116.396 88.8054C117.313 88.7734 117.857 88.7521 118.028 88.7414C119.148 88.7094 119.964 88.6827 120.476 88.6614C120.999 88.6294 121.441 88.5761 121.804 88.5014ZM124.818 96.3414C124.786 97.1734 124.706 97.9414 124.578 98.6454C124.45 99.3494 124.274 99.7014 124.05 99.7014C123.783 99.7014 123.474 99.6107 123.122 99.4294C122.77 99.2481 122.466 99.0347 122.21 98.7894C121.965 98.5334 121.842 98.3147 121.842 98.1334C121.842 98.0054 121.885 97.7867 121.97 97.4774C122.055 97.1574 122.157 96.8054 122.274 96.4214C122.69 95.0561 123.015 93.8347 123.25 92.7574C123.378 92.1601 123.49 91.5414 123.586 90.9014C123.735 90.0481 123.863 89.3921 123.97 88.9334C124.077 88.4747 124.21 88.0907 124.37 87.7814C124.541 87.4614 124.749 87.3014 124.994 87.3014C125.175 87.3014 125.442 87.4134 125.794 87.6374C126.157 87.8507 126.477 88.1014 126.754 88.3894C127.031 88.6667 127.17 88.8961 127.17 89.0774C127.17 89.2374 127.111 89.4187 126.994 89.6214C126.887 89.8134 126.706 90.0907 126.45 90.4534C126.397 90.5281 126.295 90.6774 126.146 90.9014C126.007 91.1254 125.906 91.3121 125.842 91.4614C125.714 91.7707 125.57 92.1654 125.41 92.6454C125.261 93.1254 125.133 93.5947 125.026 94.0534L125.314 94.2134C126.007 93.2747 126.61 92.5227 127.122 91.9574C127.645 91.3921 128.05 91.1094 128.338 91.1094C128.541 91.1094 128.786 91.2107 129.074 91.4134C129.362 91.6161 129.613 91.8507 129.826 92.1174C130.039 92.3734 130.146 92.5707 130.146 92.7094C130.135 92.9014 130.071 93.1787 129.954 93.5414C129.847 93.8934 129.677 94.3894 129.442 95.0294C129.143 95.7974 128.877 96.5494 128.642 97.2854C128.973 97.1574 129.25 97.0294 129.474 96.9014C129.698 96.7734 129.959 96.5974 130.258 96.3734C130.706 96.5654 131.031 96.8054 131.234 97.0934C131.447 97.3814 131.543 97.7334 131.522 98.1494C131.522 98.4054 131.325 98.6507 130.93 98.8854C130.546 99.1201 130.098 99.3174 129.586 99.4774C129.085 99.6267 128.685 99.7014 128.386 99.7014C128.141 99.7014 127.858 99.6054 127.538 99.4134C127.218 99.2214 126.941 99.0027 126.706 98.7574C126.471 98.5014 126.359 98.3041 126.37 98.1654C126.37 98.0801 126.423 97.8774 126.53 97.5574C126.637 97.2267 126.706 97.0027 126.738 96.8854C126.941 96.2454 127.09 95.7387 127.186 95.3654C127.293 94.9814 127.346 94.6987 127.346 94.5174C127.346 94.3894 127.319 94.3254 127.266 94.3254C127.031 94.3254 126.679 94.5281 126.21 94.9334C125.741 95.3387 125.277 95.8081 124.818 96.3414ZM135.801 99.7014C135.289 99.7014 134.756 99.5361 134.201 99.2054C133.647 98.8641 133.188 98.4481 132.825 97.9574C132.463 97.4667 132.281 97.0027 132.281 96.5654C132.281 95.7867 132.463 94.9334 132.825 94.0054C133.199 93.0774 133.711 92.2934 134.361 91.6534C135.012 91.0027 135.748 90.6774 136.569 90.6774C137.156 90.6774 137.684 90.8054 138.153 91.0614C138.633 91.3174 139.007 91.6374 139.273 92.0214C139.54 92.4054 139.673 92.7787 139.673 93.1414C139.673 93.5894 139.471 94.0321 139.065 94.4694C138.66 94.8961 138.095 95.2747 137.369 95.6054C136.644 95.9254 135.817 96.1547 134.889 96.2934C134.879 96.4214 134.873 96.6134 134.873 96.8694C134.873 97.1894 134.884 97.4294 134.905 97.5894C135.439 97.5361 135.967 97.3921 136.489 97.1574C137.012 96.9227 137.583 96.5921 138.201 96.1654C138.617 96.2934 138.932 96.4961 139.145 96.7734C139.359 97.0507 139.465 97.3814 139.465 97.7654C139.465 98.0854 139.268 98.4001 138.873 98.7094C138.489 99.0081 138.009 99.2481 137.433 99.4294C136.857 99.6107 136.313 99.7014 135.801 99.7014ZM135.129 95.0934C135.78 94.8587 136.324 94.5601 136.761 94.1974C137.199 93.8347 137.417 93.5254 137.417 93.2694C137.417 92.9707 137.209 92.7681 136.793 92.6614C136.388 92.9601 136.041 93.3174 135.753 93.7334C135.476 94.1494 135.268 94.6027 135.129 95.0934Z" fill="white"/>
<mask id="mask0_18_139" style="mask-type:alpha" maskUnits="userSpaceOnUse" x="176" y="17" width="111" height="111">
<rect x="176.655" y="17.3112" width="109.833" height="109.833" fill="white"/>
</mask>
<g mask="url(#mask0_18_139)">
<path d="M208.69 122.567C206.173 122.567 204.018 121.671 202.226 119.879C200.434 118.086 199.537 115.932 199.537 113.415V31.0403C199.537 28.5233 200.434 26.3686 202.226 24.5762C204.018 22.7838 206.173 21.8876 208.69 21.8876H254.454C256.971 21.8876 259.125 22.7838 260.918 24.5762C262.71 26.3686 263.606 28.5233 263.606 31.0403V113.415C263.606 115.932 262.71 118.086 260.918 119.879C259.125 121.671 256.971 122.567 254.454 122.567H208.69ZM208.69 99.6857V113.415H254.454V99.6857H208.69ZM231.572 111.127C232.868 111.127 233.955 110.688 234.833 109.811C235.71 108.934 236.148 107.847 236.148 106.55C236.148 105.254 235.71 104.167 234.833 103.29C233.955 102.412 232.868 101.974 231.572 101.974C230.275 101.974 229.188 102.412 228.311 103.29C227.434 104.167 226.995 105.254 226.995 106.55C226.995 107.847 227.434 108.934 228.311 109.811C229.188 110.688 230.275 111.127 231.572 111.127ZM208.69 90.533H254.454V44.7694H208.69V90.533ZM208.69 35.6167H254.454V31.0403H208.69V35.6167Z" fill="white"/>
</g>
</svg>
